<mxfile host="app.diagrams.net" modified="2021-09-14T21:23:45.096Z" agent="5.0 (Windows NT 10.0; Win64; x64) AppleWebKit/537.36 (KHTML, like Gecko) Chrome/93.0.4577.82 Safari/537.36" etag="ROs34NUAuYVUdp4N7kiC" version="15.2.7" type="github">
  <diagram id="C5RBs43oDa-KdzZeNtuy" name="Page-1">
    <mxGraphModel dx="868" dy="460" grid="1" gridSize="10" guides="1" tooltips="1" connect="1" arrows="1" fold="1" page="1" pageScale="1" pageWidth="827" pageHeight="1169" math="0" shadow="0">
      <root>
        <mxCell id="WIyWlLk6GJQsqaUBKTNV-0" />
        <mxCell id="WIyWlLk6GJQsqaUBKTNV-1" parent="WIyWlLk6GJQsqaUBKTNV-0" />
        <mxCell id="vPaZ0bTGu1ACrF1QMu3u-2" style="edgeStyle=orthogonalEdgeStyle;rounded=0;orthogonalLoop=1;jettySize=auto;html=1;" edge="1" parent="WIyWlLk6GJQsqaUBKTNV-1" source="vPaZ0bTGu1ACrF1QMu3u-0" target="vPaZ0bTGu1ACrF1QMu3u-1">
          <mxGeometry relative="1" as="geometry" />
        </mxCell>
        <mxCell id="vPaZ0bTGu1ACrF1QMu3u-0" value="Begin" style="ellipse;whiteSpace=wrap;html=1;" vertex="1" parent="WIyWlLk6GJQsqaUBKTNV-1">
          <mxGeometry x="315" y="50" width="120" height="80" as="geometry" />
        </mxCell>
        <mxCell id="vPaZ0bTGu1ACrF1QMu3u-4" style="edgeStyle=orthogonalEdgeStyle;rounded=0;orthogonalLoop=1;jettySize=auto;html=1;" edge="1" parent="WIyWlLk6GJQsqaUBKTNV-1" source="vPaZ0bTGu1ACrF1QMu3u-1" target="vPaZ0bTGu1ACrF1QMu3u-3">
          <mxGeometry relative="1" as="geometry" />
        </mxCell>
        <mxCell id="vPaZ0bTGu1ACrF1QMu3u-1" value="Tạo ngẫu nhiên 2 số nguyên có 1 chữ số: number1 và number2" style="shape=parallelogram;perimeter=parallelogramPerimeter;whiteSpace=wrap;html=1;fixedSize=1;" vertex="1" parent="WIyWlLk6GJQsqaUBKTNV-1">
          <mxGeometry x="240" y="180" width="270" height="70" as="geometry" />
        </mxCell>
        <mxCell id="vPaZ0bTGu1ACrF1QMu3u-6" style="edgeStyle=orthogonalEdgeStyle;rounded=0;orthogonalLoop=1;jettySize=auto;html=1;" edge="1" parent="WIyWlLk6GJQsqaUBKTNV-1" source="vPaZ0bTGu1ACrF1QMu3u-3" target="vPaZ0bTGu1ACrF1QMu3u-5">
          <mxGeometry relative="1" as="geometry">
            <Array as="points">
              <mxPoint x="636" y="350" />
            </Array>
          </mxGeometry>
        </mxCell>
        <mxCell id="vPaZ0bTGu1ACrF1QMu3u-10" style="edgeStyle=orthogonalEdgeStyle;rounded=0;orthogonalLoop=1;jettySize=auto;html=1;" edge="1" parent="WIyWlLk6GJQsqaUBKTNV-1" source="vPaZ0bTGu1ACrF1QMu3u-3" target="vPaZ0bTGu1ACrF1QMu3u-9">
          <mxGeometry relative="1" as="geometry" />
        </mxCell>
        <mxCell id="vPaZ0bTGu1ACrF1QMu3u-3" value="number1 &amp;gt; number2" style="rhombus;whiteSpace=wrap;html=1;" vertex="1" parent="WIyWlLk6GJQsqaUBKTNV-1">
          <mxGeometry x="305" y="300" width="140" height="100" as="geometry" />
        </mxCell>
        <mxCell id="vPaZ0bTGu1ACrF1QMu3u-13" style="edgeStyle=orthogonalEdgeStyle;rounded=0;orthogonalLoop=1;jettySize=auto;html=1;" edge="1" parent="WIyWlLk6GJQsqaUBKTNV-1" source="vPaZ0bTGu1ACrF1QMu3u-5" target="vPaZ0bTGu1ACrF1QMu3u-9">
          <mxGeometry relative="1" as="geometry">
            <Array as="points">
              <mxPoint x="636" y="510" />
            </Array>
          </mxGeometry>
        </mxCell>
        <mxCell id="vPaZ0bTGu1ACrF1QMu3u-5" value="temp = number1&lt;br&gt;number1 = number2&lt;br&gt;number2 = temp" style="shape=parallelogram;perimeter=parallelogramPerimeter;whiteSpace=wrap;html=1;fixedSize=1;" vertex="1" parent="WIyWlLk6GJQsqaUBKTNV-1">
          <mxGeometry x="551" y="320" width="170" height="80" as="geometry" />
        </mxCell>
        <mxCell id="vPaZ0bTGu1ACrF1QMu3u-7" value="False" style="text;html=1;strokeColor=none;fillColor=none;align=center;verticalAlign=middle;whiteSpace=wrap;rounded=0;" vertex="1" parent="WIyWlLk6GJQsqaUBKTNV-1">
          <mxGeometry x="501" y="330" width="40" height="20" as="geometry" />
        </mxCell>
        <mxCell id="vPaZ0bTGu1ACrF1QMu3u-14" style="edgeStyle=orthogonalEdgeStyle;rounded=0;orthogonalLoop=1;jettySize=auto;html=1;" edge="1" parent="WIyWlLk6GJQsqaUBKTNV-1" source="vPaZ0bTGu1ACrF1QMu3u-9" target="vPaZ0bTGu1ACrF1QMu3u-12">
          <mxGeometry relative="1" as="geometry">
            <Array as="points">
              <mxPoint x="375" y="660" />
            </Array>
          </mxGeometry>
        </mxCell>
        <mxCell id="vPaZ0bTGu1ACrF1QMu3u-9" value="Nhập answer" style="shape=parallelogram;perimeter=parallelogramPerimeter;whiteSpace=wrap;html=1;fixedSize=1;" vertex="1" parent="WIyWlLk6GJQsqaUBKTNV-1">
          <mxGeometry x="290" y="470" width="170" height="80" as="geometry" />
        </mxCell>
        <mxCell id="vPaZ0bTGu1ACrF1QMu3u-11" value="True" style="text;html=1;strokeColor=none;fillColor=none;align=center;verticalAlign=middle;whiteSpace=wrap;rounded=0;" vertex="1" parent="WIyWlLk6GJQsqaUBKTNV-1">
          <mxGeometry x="160" y="680" width="40" height="20" as="geometry" />
        </mxCell>
        <mxCell id="vPaZ0bTGu1ACrF1QMu3u-20" style="edgeStyle=orthogonalEdgeStyle;rounded=0;orthogonalLoop=1;jettySize=auto;html=1;entryX=0.5;entryY=0;entryDx=0;entryDy=0;" edge="1" parent="WIyWlLk6GJQsqaUBKTNV-1" source="vPaZ0bTGu1ACrF1QMu3u-12" target="vPaZ0bTGu1ACrF1QMu3u-15">
          <mxGeometry relative="1" as="geometry" />
        </mxCell>
        <mxCell id="vPaZ0bTGu1ACrF1QMu3u-21" style="edgeStyle=orthogonalEdgeStyle;rounded=0;orthogonalLoop=1;jettySize=auto;html=1;entryX=0.5;entryY=0;entryDx=0;entryDy=0;" edge="1" parent="WIyWlLk6GJQsqaUBKTNV-1" source="vPaZ0bTGu1ACrF1QMu3u-12" target="vPaZ0bTGu1ACrF1QMu3u-17">
          <mxGeometry relative="1" as="geometry" />
        </mxCell>
        <mxCell id="vPaZ0bTGu1ACrF1QMu3u-12" value="answer == number1 - number 2" style="rhombus;whiteSpace=wrap;html=1;" vertex="1" parent="WIyWlLk6GJQsqaUBKTNV-1">
          <mxGeometry x="295" y="640" width="160" height="120" as="geometry" />
        </mxCell>
        <mxCell id="vPaZ0bTGu1ACrF1QMu3u-24" style="edgeStyle=orthogonalEdgeStyle;rounded=0;orthogonalLoop=1;jettySize=auto;html=1;" edge="1" parent="WIyWlLk6GJQsqaUBKTNV-1" source="vPaZ0bTGu1ACrF1QMu3u-15" target="vPaZ0bTGu1ACrF1QMu3u-23">
          <mxGeometry relative="1" as="geometry">
            <Array as="points">
              <mxPoint x="160" y="920" />
            </Array>
          </mxGeometry>
        </mxCell>
        <mxCell id="vPaZ0bTGu1ACrF1QMu3u-15" value="In True" style="shape=parallelogram;perimeter=parallelogramPerimeter;whiteSpace=wrap;html=1;fixedSize=1;" vertex="1" parent="WIyWlLk6GJQsqaUBKTNV-1">
          <mxGeometry x="100" y="740" width="120" height="60" as="geometry" />
        </mxCell>
        <mxCell id="vPaZ0bTGu1ACrF1QMu3u-25" style="edgeStyle=orthogonalEdgeStyle;rounded=0;orthogonalLoop=1;jettySize=auto;html=1;" edge="1" parent="WIyWlLk6GJQsqaUBKTNV-1" source="vPaZ0bTGu1ACrF1QMu3u-17" target="vPaZ0bTGu1ACrF1QMu3u-23">
          <mxGeometry relative="1" as="geometry">
            <Array as="points">
              <mxPoint x="630" y="920" />
            </Array>
          </mxGeometry>
        </mxCell>
        <mxCell id="vPaZ0bTGu1ACrF1QMu3u-17" value="In False" style="shape=parallelogram;perimeter=parallelogramPerimeter;whiteSpace=wrap;html=1;fixedSize=1;" vertex="1" parent="WIyWlLk6GJQsqaUBKTNV-1">
          <mxGeometry x="570" y="740" width="120" height="60" as="geometry" />
        </mxCell>
        <mxCell id="vPaZ0bTGu1ACrF1QMu3u-22" value="False" style="text;html=1;strokeColor=none;fillColor=none;align=center;verticalAlign=middle;whiteSpace=wrap;rounded=0;" vertex="1" parent="WIyWlLk6GJQsqaUBKTNV-1">
          <mxGeometry x="590" y="680" width="40" height="20" as="geometry" />
        </mxCell>
        <mxCell id="vPaZ0bTGu1ACrF1QMu3u-23" value="End" style="ellipse;whiteSpace=wrap;html=1;" vertex="1" parent="WIyWlLk6GJQsqaUBKTNV-1">
          <mxGeometry x="315" y="880" width="120" height="80" as="geometry" />
        </mxCell>
        <mxCell id="vPaZ0bTGu1ACrF1QMu3u-26" value="True" style="text;html=1;strokeColor=none;fillColor=none;align=center;verticalAlign=middle;whiteSpace=wrap;rounded=0;" vertex="1" parent="WIyWlLk6GJQsqaUBKTNV-1">
          <mxGeometry x="330" y="440" width="40" height="20" as="geometry" />
        </mxCell>
      </root>
    </mxGraphModel>
  </diagram>
</mxfile>
